<?xml version="1.0" encoding="UTF-8"?>
<svg xmlns="http://www.w3.org/2000/svg" version="1.1" viewBox="0 0 800 800">
  <defs>
    <style>
      .cls-1 {
        fill: #3b1d6b;
      }

      .cls-2 {
        opacity: .6;
      }

      .cls-2, .cls-3 {
        fill: #9b9292;
      }
    </style>
  </defs>
  <!-- Generator: Adobe Illustrator 28.7.3, SVG Export Plug-In . SVG Version: 1.2.0 Build 164)  -->
  <g>
    <g id="Layer_1">
      <path class="cls-1" d="M0,765.6c0,.5,0,1,.1,1.6.7,8.4,5.4,17,14.2,23.9,17.8,13.7,43.4,13.5,57.8,1.3,6.6-5.6,10-13.1,10-20.8l-5.5-4.2-39.1-30.2-2.5-1.9c-9.5.4-18.5,3.5-25.1,9.1-6.8,5.8-10.1,13.4-10,21.2h0ZM68.2,724.8l22.8,17.6c56.7-20.2,95.5-53.8,124.3-96.6l-33.1-25.5c-50.9,27.4-89.9,62.2-113.9,104.6h0ZM128.8,542.9l186.2,143.6,40.1-34.1c-71.3-40.2-132.6-88.8-186-143.7l-40.3,34.2ZM225.5,523.1c33.2,30.7,69.2,59,108.5,84.3,74.3-49,139.5-109.3,188.6-174.7,3.8,29.1,3.9,56.4.2,81.8,41.4-48.5,75.7-101,100.8-156,5.7,39.3,6.2,76.1,1.2,110.3,87.9-103.1,150.7-220.1,175.1-343-162.5,31.9-305.2,87.2-424.8,161.8,42.9-5.8,90-8.1,141.8-6.2-70.2,23.8-134.4,54-191.7,89.8,31.9-4.3,66.8-6.2,105-5.2-80.3,43-149.3,95.8-204.7,157.1"/>
      <path class="cls-2" d="M225.5,523.1c41.8,24.3,66.3,29.9,112.3,47.8,56-61.1,99.8-131.5,126.3-204.2,12.9,27.8,21.7,54.5,26.3,80,24.5-54.8,40.9-112.2,47.6-170.4,18.1,37.5,30.2,73.4,36.3,107.7,52-116.3,75.3-242,59.7-366.5-146.5,59.8-266.6,139-358.2,233.1,39.5-13.2,84.2-23.8,134.8-31-60.1,35.7-112.4,76.5-156.4,121.6,29.4-9.9,62.5-17.8,99.6-23.5-63.7,56.2-94.4,135.7-128.3,205.5"/>
      <path class="cls-3" d="M225.5,523.1c33.2,30.7,69.2,59,108.5,84.3,74.3-49,139.5-109.3,188.6-174.7,3.8,29.1,3.9,56.4.2,81.8,41.4-48.5,75.7-101,100.8-156,5.7,39.3,6.2,76.1,1.2,110.3,87.9-103.1,150.7-220.1,175.1-343-162.5,31.9-305.2,87.2-424.8,161.8,42.9-5.8,90-8.1,141.8-6.2-70.2,23.8-134.4,54-191.7,89.8,31.9-4.3,66.8-6.2,105-5.2"/>
    </g>
  </g>
</svg>