<?xml version="1.0" encoding="UTF-8"?>
<svg id="Layer_1" xmlns="http://www.w3.org/2000/svg" version="1.1" viewBox="0 0 800 800">
  <!-- Generator: Adobe Illustrator 29.0.1, SVG Export Plug-In . SVG Version: 2.1.0 Build 192)  -->
  <defs>
    <style>
      .st0 {
        fill: #4b0e7a;
      }

      .st1 {
        opacity: .9;
      }
    </style>
  </defs>
  <g class="st1">
    <path class="st0" d="M279.3,673.1c14.4,12.7,29.3,25.7,44.6,39.3.1,0,.2.2.3.3l51,44c6.8,5.9,15.3,8.8,23.8,8.8s17-3,23.8-8.8l51-44c.1,0,.2-.2.3-.3,100.9-89.2,176.5-157.5,231.3-224.1,63.9-77.8,93.7-148.2,93.7-221.4,0-132.5-103.8-236.3-236.3-236.3s-118.4,22.4-163.7,61.3c-45.3-38.9-104.2-61.3-163.7-61.3-132.5,0-236.3,103.8-236.3,236.3s111.5,258.1,280.3,406.3ZM253.5,325.3h97v-97h97v97h97v97h-97v97h-97v-97h-97v-97h0Z"/>
  </g>
</svg>