<?xml version="1.0" encoding="UTF-8"?>
<svg xmlns="http://www.w3.org/2000/svg" xmlns:xlink="http://www.w3.org/1999/xlink" version="1.1" viewBox="0 0 800 800">
  <defs>
    <style>
      .cls-1 {
        fill: none;
      }

      .cls-2 {
        fill: #3b1d6b;
      }

      .cls-3 {
        clip-path: url(#clippath);
      }

      .cls-4 {
        fill: #9b9292;
      }
    </style>
    <clipPath id="clippath">
      <rect class="cls-1" x="114.8" y="118.7" width="563.8" height="561.6" transform="translate(-166.1 384.3) rotate(-43.7)"/>
    </clipPath>
  </defs>
  <!-- Generator: Adobe Illustrator 28.7.3, SVG Export Plug-In . SVG Version: 1.2.0 Build 164)  -->
  <g>
    <g id="Layer_1">
      <g class="cls-3">
        <path class="cls-2" d="M365,774.7c.3.3.6.6,1,.9,5.2,5,12.5,8.2,20.9,8.4,16.9.4,29.8-11.6,30.2-26,.2-6.6-2.4-12.9-6.8-17.7h-5.2c0,0-37.2-1-37.2-1h-2.4c-4.6,4.6-7.4,10.7-7.6,17.3-.2,6.8,2.5,13.1,7.1,18h0ZM376.4,717.4l21.7.5c17.4-39,17.9-78,8.1-118.3l-31.5-.7c-10.3,40.8-10.2,80.7,1.8,118.6h0ZM303.3,574.9l177,4.1.9-40c-59.3,7.7-118.3,5.5-177-4.3l-.9,40.2ZM341.2,517.7c34.5,4,69,5.1,103.5,2.8,9.8-65.2,8.6-133.4-3.8-197.2,18.6,16.5,34.2,33.7,46.9,51.4-6.6-49.7-19.2-98.6-37.8-144.8,25.4,22.1,46.7,45,63.7,68.8-14.1-105.6-49.1-208.3-106.9-296.9-64.5,95.3-105.7,196.2-123.9,298.5,18.5-23.5,41.2-46.8,68.7-69.6-22.2,47.5-37.6,96.2-46.4,145.3,13.8-17.5,30.5-34.8,50.5-51.9-16.3,64.2-21.3,129.4-14.5,193.6"/>
      </g>
      <path d="M341.2,517.7c34.5,4,69,5.1,103.5,2.8,9.8-65.2,8.6-133.4-3.8-197.2,18.6,16.5,34.2,33.7,46.9,51.4-6.6-49.7-19.2-98.6-37.8-144.8,25.4,22.1,46.7,45,63.7,68.8-14.1-105.6-49.1-208.3-106.9-296.9-64.5,95.3-105.7,196.2-123.9,298.5,18.5-23.5,41.2-46.8,68.7-69.6-22.2,47.5-37.6,96.2-46.4,145.3,13.8-17.5,30.5-34.8,50.5-51.9"/>
      <path class="cls-4" d="M355.7,324c-16.3,64.2-21.3,129.4-14.5,193.6"/>
      <path class="cls-4" d="M341.2,517.7c34.5,4,69,5.1,103.5,2.8,9.8-65.2,8.6-133.4-3.8-197.2,18.6,16.5,34.2,33.7,46.9,51.4-6.6-49.7-19.2-98.6-37.8-144.8,25.4,22.1,46.7,45,63.7,68.8-14.1-105.6-49.1-208.3-106.9-296.9-64.5,95.3-105.7,196.2-123.9,298.5,18.5-23.5,41.2-46.8,68.7-69.6-22.2,47.5-37.6,96.2-46.4,145.3,13.8-17.5,30.5-34.8,50.5-51.9"/>
    </g>
  </g>
</svg>