<?xml version="1.0" standalone="no"?>
<!DOCTYPE svg PUBLIC "-//W3C//DTD SVG 20010904//EN"
 "http://www.w3.org/TR/2001/REC-SVG-20010904/DTD/svg10.dtd">
<svg version="1.0" xmlns="http://www.w3.org/2000/svg"
 width="1920.000000pt" height="1920.000000pt" viewBox="0 0 1920.000000 1920.000000"
 preserveAspectRatio="xMidYMid meet">

<g transform="translate(0.000000,1920.000000) scale(0.100000,-0.100000)"
fill="#000000" stroke="none">
<path d="M10407 18894 c-2 -2 -937 -4 -2078 -5 -1181 -1 -2115 -5 -2169 -10
-583 -57 -1019 -447 -1147 -1025 -16 -71 -18 -149 -18 -754 l0 -675 -28 -5
-28 -5 0 -320 -1 -320 31 -3 31 -3 0 -347 c0 -191 -3 -357 -6 -370 -6 -19 -11
-22 -35 -17 -22 5 -29 3 -29 -9 0 -10 9 -16 24 -16 14 0 28 -4 31 -10 4 -6 -6
-10 -23 -10 -35 0 -46 -19 -31 -57 12 -32 16 -979 5 -1065 -6 -46 -5 -58 6
-59 7 -1 22 -2 33 -3 19 -1 20 -9 23 -225 2 -228 -2 -257 -33 -231 -33 27 -38
-1 -25 -142 12 -139 9 -892 -5 -996 -4 -29 -4 -64 -1 -78 6 -21 11 -25 31 -20
13 3 26 3 28 -1 7 -13 17 -2873 22 -6713 3 -1961 8 -3614 11 -3675 17 -361 63
-532 197 -733 179 -267 463 -471 733 -527 156 -32 271 -35 1584 -34 2086 0
5101 8 5260 14 264 8 410 39 571 119 293 146 555 468 633 778 48 188 47 149
41 3958 -3 1972 -8 3602 -10 3623 -5 33 -3 37 17 37 30 0 58 19 41 27 -17 6
-19 1343 -3 1343 24 0 7 20 -22 28 l-33 8 -2 1164 c-1 791 1 1169 8 1183 8 13
18 18 35 14 32 -6 57 22 26 30 -21 5 -22 10 -24 182 l-2 176 -6 -177 c-3 -122
-9 -181 -17 -190 -10 -9 -13 -9 -13 3 -3 376 4 1710 9 1749 6 44 9 51 17 35
13 -29 44 -29 44 1 0 13 -4 24 -10 24 -5 0 -10 10 -10 21 0 20 -1 21 -25 5
-13 -9 -27 -16 -30 -16 -3 0 -5 692 -5 1538 0 1539 -3 1676 -36 1818 -62 271
-254 559 -487 735 -94 71 -179 115 -302 157 -239 82 -268 83 -1627 81 -642 -1
-1169 -3 -1171 -5z m2385 -334 c140 -12 244 -38 353 -89 195 -91 366 -326 433
-594 20 -77 26 -1313 30 -5586 1 -1586 4 -2886 6 -2890 3 -4 5 -1757 6 -3896
1 -2773 -1 -3919 -9 -3990 -13 -119 -32 -188 -73 -269 -50 -100 -107 -176
-202 -272 -132 -132 -234 -178 -456 -205 -71 -9 -941 -12 -3425 -13 -3204 -1
-3332 0 -3395 17 -240 68 -466 274 -554 505 -63 164 -59 6 -65 2632 -8 3008
-16 9103 -16 11830 l0 2075 23 90 c36 137 118 291 212 398 101 114 260 194
465 233 77 15 158 18 553 18 l464 1 23 -27 c16 -18 26 -49 34 -100 19 -120 50
-228 82 -284 62 -110 203 -210 328 -234 66 -12 3567 -13 3718 -1 56 5 123 17
150 27 143 53 257 170 302 309 11 33 27 111 36 174 8 63 20 120 26 127 6 7 23
15 37 17 57 9 803 6 914 -3z m-2318 -215 c47 -44 75 -44 120 -1 29 27 36 30
36 15 0 -9 -12 -27 -27 -39 -40 -31 -117 -24 -150 14 -20 24 -30 46 -19 46 2
0 20 -16 40 -35z m-5507 -4147 c-3 -7 -5 -2 -5 12 0 14 2 19 5 13 2 -7 2 -19
0 -25z"/>
<path d="M8848 403 c-28 -7 -21 -21 7 -15 14 2 22 8 19 13 -3 5 -6 8 -7 8 -1
-1 -10 -3 -19 -6z"/>
<path d="M10235 400 c-3 -5 -1 -10 4 -10 6 0 11 5 11 10 0 6 -2 10 -4 10 -3 0
-8 -4 -11 -10z"/>
<path d="M10316 401 c-4 -5 -2 -12 3 -15 5 -4 12 -2 15 3 4 5 2 12 -3 15 -5 4
-12 2 -15 -3z"/>
<path d="M11150 400 c0 -5 5 -10 11 -10 5 0 7 5 4 10 -3 6 -8 10 -11 10 -2 0
-4 -4 -4 -10z"/>
<path d="M11415 400 c-3 -5 1 -10 10 -10 9 0 13 5 10 10 -3 6 -8 10 -10 10 -2
0 -7 -4 -10 -10z"/>
<path d="M11680 400 c0 -5 5 -10 11 -10 5 0 7 5 4 10 -3 6 -8 10 -11 10 -2 0
-4 -4 -4 -10z"/>
<path d="M11945 400 c-3 -5 -1 -10 4 -10 6 0 11 5 11 10 0 6 -2 10 -4 10 -3 0
-8 -4 -11 -10z"/>
<path d="M12210 400 c0 -5 5 -10 10 -10 6 0 10 5 10 10 0 6 -4 10 -10 10 -5 0
-10 -4 -10 -10z"/>
<path d="M12480 400 c0 -5 5 -10 10 -10 6 0 10 5 10 10 0 6 -4 10 -10 10 -5 0
-10 -4 -10 -10z"/>
<path d="M8775 390 c4 -6 11 -8 16 -5 14 9 11 15 -7 15 -8 0 -12 -5 -9 -10z"/>
<path d="M8753 353 c9 -2 23 -2 30 0 6 3 -1 5 -18 5 -16 0 -22 -2 -12 -5z"/>
</g>
</svg>
