<?xml version="1.0" standalone="no"?>
<!DOCTYPE svg PUBLIC "-//W3C//DTD SVG 20010904//EN"
 "http://www.w3.org/TR/2001/REC-SVG-20010904/DTD/svg10.dtd">
<svg version="1.0" xmlns="http://www.w3.org/2000/svg"
 width="1920.000000pt" height="1920.000000pt" viewBox="0 0 1920.000000 1920.000000"
 preserveAspectRatio="xMidYMid meet">
<metadata>
Created by potrace 1.16, written by Peter Selinger 2001-2019
</metadata>
<g transform="translate(0.000000,1920.000000) scale(0.100000,-0.100000)"
fill="#000000" stroke="none">
<path d="M10407 18894 c-2 -2 -937 -4 -2078 -5 -1181 -1 -2115 -5 -2169 -10
-583 -57 -1019 -446 -1147 -1025 -16 -71 -18 -148 -18 -754 l0 -675 -37 -3
-38 -3 0 -325 0 -324 40 0 40 0 0 -347 c0 -192 -3 -358 -6 -371 -6 -19 -11
-22 -35 -17 -22 5 -29 3 -29 -9 0 -10 9 -16 24 -16 14 0 28 -4 31 -10 4 -6 -6
-10 -23 -10 -35 0 -46 -19 -31 -57 10 -26 17 -936 8 -1068 l-4 -60 30 0 30 0
3 -224 c2 -228 -2 -257 -33 -231 -33 27 -38 -1 -25 -142 12 -139 9 -892 -5
-996 -4 -29 -4 -64 -1 -78 6 -21 11 -25 31 -20 13 3 26 3 28 -1 7 -12 17
-2887 22 -6728 3 -1952 8 -3599 11 -3660 17 -361 63 -532 197 -733 179 -267
463 -471 733 -527 156 -32 271 -35 1584 -34 2086 0 5101 8 5260 14 264 8 410
39 571 119 293 146 555 468 633 778 48 188 47 149 41 3958 -3 1972 -8 3602
-10 3623 -5 33 -3 37 17 37 30 0 58 19 41 27 -17 6 -19 1343 -3 1343 24 0 7
20 -22 28 l-33 8 -2 1164 c-1 791 1 1169 8 1183 8 13 18 18 35 14 32 -6 57 22
26 30 -21 5 -22 10 -24 182 l-2 176 -6 -177 c-3 -122 -9 -181 -17 -190 -10 -9
-13 -9 -13 3 -3 376 4 1710 9 1749 6 44 9 51 17 35 13 -29 44 -29 44 1 0 13
-4 24 -10 24 -5 0 -10 10 -10 21 0 20 -1 21 -25 5 -13 -9 -27 -16 -30 -16 -3
0 -5 692 -5 1538 0 1539 -3 1676 -36 1818 -62 271 -254 559 -487 735 -94 71
-179 115 -302 157 -239 82 -268 83 -1627 81 -642 -1 -1169 -3 -1171 -5z m1906
-331 c-263 -2 -403 -7 -403 -13 0 -7 134 -9 403 -5 221 3 443 6 493 6 50 1
108 -4 128 -11 36 -12 55 -16 86 -21 8 -1 -3 -5 -25 -9 l-40 -8 50 0 c72 0 83
-3 55 -12 -21 -7 -18 -8 17 -7 23 0 46 -2 49 -6 4 -4 -4 -7 -17 -8 l-24 0 24
-10 c18 -7 27 -6 33 3 6 11 8 10 8 0 0 -7 4 -10 10 -7 6 4 7 -1 3 -10 -5 -14
0 -16 23 -13 20 2 31 -3 39 -17 5 -11 39 -47 75 -80 l65 -59 -65 67 c-35 37
-62 67 -59 67 2 0 36 -32 74 -71 39 -40 64 -68 56 -64 -9 5 -12 3 -9 -6 3 -8
10 -14 15 -14 6 0 15 -4 20 -9 5 -5 3 -6 -4 -2 -15 9 -18 -10 -3 -19 6 -3 29
-40 51 -81 22 -41 43 -74 45 -74 3 0 0 9 -6 21 -18 33 -7 31 12 -2 10 -17 13
-27 8 -24 -15 9 -12 -9 10 -66 56 -141 53 -76 59 -1499 l6 -1315 5 1275 5
1275 5 -1277 c3 -702 2 -1276 -2 -1275 -9 2 -11 -5103 -3 -5111 3 -3 6 1133 7
2524 l2 2529 6 -3335 c4 -1834 3 -3339 -1 -3344 -5 -6 -8 -96 -7 -200 l2 -191
6 195 c3 107 7 -1081 8 -2640 1 -1559 4 -2853 7 -2875 2 -22 2 -31 -1 -20 -11
37 -19 34 -19 -5 0 -37 9 -53 17 -30 2 6 3 -12 3 -39 0 -38 -3 -47 -13 -39 -8
7 -7 1 3 -18 10 -20 14 -55 13 -109 l-1 -80 -7 60 -7 60 -2 -70 c-6 -224 -5
-535 2 -535 4 0 6 -71 5 -157 l-2 -158 -6 115 -5 115 -5 -128 c-3 -70 -2 -127
3 -127 4 0 6 -19 6 -42 l-2 -43 -6 40 c-6 37 -7 34 -14 -34 -4 -40 -19 -106
-33 -145 -14 -39 -26 -81 -27 -93 -1 -11 -5 -19 -9 -17 -4 3 -12 -4 -17 -15
-14 -26 -14 -34 1 -25 7 4 8 3 4 -5 -4 -6 -11 -9 -16 -6 -4 3 -15 -6 -24 -20
-19 -29 -20 -39 -4 -29 7 4 8 3 4 -5 -4 -6 -11 -9 -16 -6 -10 6 -32 -29 -24
-37 2 -3 -4 -11 -13 -19 -17 -13 -17 -13 -3 6 15 20 14 20 -8 1 -23 -20 -31
-43 -10 -30 7 4 8 3 4 -5 -4 -6 -11 -9 -15 -7 -4 3 -32 -19 -61 -49 -30 -30
-50 -55 -45 -55 20 -1 -41 -40 -62 -40 -12 0 -24 -4 -27 -9 -4 -5 4 -7 16 -4
45 9 -111 -57 -168 -72 -151 -38 -155 -38 -3569 -39 -3187 -1 -3323 0 -3395
17 -41 10 -82 21 -90 24 -8 4 -17 7 -20 8 -47 16 -132 74 -125 85 3 5 0 12 -6
16 -8 4 -9 3 -5 -4 4 -7 2 -12 -4 -12 -14 0 -190 177 -190 191 0 6 5 7 10 4 6
-3 10 -1 10 5 0 6 -8 9 -17 6 -23 -7 -88 96 -85 134 1 17 -1 21 -7 11 -6 -9
-13 0 -24 32 -8 25 -13 48 -9 51 3 3 0 6 -5 6 -15 0 -31 105 -43 275 -16 226
-13 6517 3 6534 10 12 9 13 -7 7 -18 -6 -18 -5 -2 18 18 28 22 91 6 101 -13 8
-13 62 0 70 16 10 13 2975 -3 2971 -7 -1 -9 -1 -4 1 4 3 7 11 7 18 0 7 -3 15
-7 18 -5 2 -2 2 5 1 8 -3 10 4 6 21 -4 18 -1 27 11 31 10 4 13 9 6 13 -8 5
-13 930 -17 3212 -4 1762 -8 3207 -10 3210 -4 7 4 58 13 79 3 8 8 24 10 35 7
43 16 51 23 20 7 -26 8 -23 9 20 1 36 4 46 11 35 8 -12 10 -9 10 13 0 15 5 27
11 27 6 0 9 9 6 20 -3 11 0 20 6 20 6 0 7 3 4 6 -11 11 14 46 29 40 8 -3 14 1
14 9 0 8 5 15 10 15 6 0 10 8 9 18 0 10 -3 12 -6 5 -2 -7 -9 -13 -14 -13 -5 0
0 14 13 30 12 17 28 30 36 30 16 0 41 28 41 45 0 6 -9 -1 -19 -14 -11 -13 -20
-20 -20 -15 0 12 42 54 54 54 6 0 4 -5 -4 -11 -13 -9 -13 -10 0 -6 8 2 14 12
13 21 0 11 4 15 13 12 7 -3 16 -1 19 4 4 6 1 10 -5 10 -6 0 -8 5 -5 10 4 6 11
8 16 5 5 -4 17 -1 26 5 17 11 17 11 0 6 -11 -3 -15 -2 -12 4 3 6 14 10 24 10
10 0 32 7 47 15 23 12 25 15 9 15 -18 0 -18 1 4 16 12 9 33 17 46 18 13 0 21
4 19 7 -7 11 25 19 79 20 45 1 48 2 22 9 -23 6 -10 8 50 10 l80 3 -55 7 c-52
6 -48 9 20 15 8 0 21 4 28 9 25 15 260 24 629 22 l372 -1 23 -24 c13 -13 17
-20 9 -16 -11 6 -13 4 -8 -10 4 -10 14 -59 22 -109 19 -117 40 -189 72 -246
32 -56 122 -150 144 -150 17 0 46 -28 42 -39 -2 -3 5 -7 15 -7 45 -4 47 -5 27
-14 -16 -6 -12 -8 18 -8 20 1 40 -2 44 -5 3 -4 -5 -7 -18 -7 -18 0 -20 -3 -10
-9 8 -5 23 -6 34 -2 11 4 42 4 68 -1 38 -7 3754 -5 3821 1 10 1 20 6 23 12 4
5 27 9 53 10 38 1 42 2 22 9 -14 4 -19 8 -12 9 7 1 30 12 52 26 44 28 64 33
34 9 -20 -16 2 -8 24 9 11 8 11 12 0 18 -9 6 -6 9 10 9 13 0 33 10 45 21 17
17 18 21 5 16 -23 -8 -23 -4 4 19 12 10 18 13 14 7 -10 -18 2 -16 20 2 9 8 14
25 12 37 -2 16 4 26 19 33 24 10 39 35 23 35 -6 0 -10 -5 -10 -12 0 -6 -3 -8
-6 -5 -4 4 -1 13 6 22 7 8 9 15 5 15 -4 0 -2 6 4 13 6 8 8 17 4 20 -3 4 -1 7
5 7 6 0 13 -8 16 -17 2 -10 4 9 4 42 0 101 5 124 12 60 6 -51 7 -44 7 48 0 59
3 111 7 114 3 4 6 -15 6 -42 0 -65 6 -54 13 25 6 59 5 63 -8 46 -8 -11 -15
-15 -15 -9 0 16 34 41 52 38 10 -2 20 1 24 6 3 5 173 8 407 7 l402 -3 -402 -2z
m-6873 -3965 c0 -1777 -2 -3229 -5 -3226 -4 3 -7 4064 -5 6416 0 23 2 42 5 42
3 0 5 -1454 5 -3232z m0 -4803 c0 -780 -2 -1421 -5 -1423 -3 -3 -5 637 -5
1423 0 786 2 1426 5 1423 3 -3 5 -643 5 -1423z"/>
<path d="M13595 6685 c0 -737 1 -1037 2 -667 2 371 2 974 0 1340 -1 367 -2 64
-2 -673z"/>
<path d="M7832 773 c907 -2 2389 -2 3295 0 907 1 165 2 -1647 2 -1812 0 -2554
-1 -1648 -2z"/>
<path d="M4912 3624 c1 -776 4 -1103 9 -974 8 183 1 2130 -7 2139 -2 2 -3
-522 -2 -1165z"/>
</g>
</svg>
