<?xml version="1.0" encoding="utf-8"?>
<!-- Generator: Adobe Illustrator 24.2.0, SVG Export Plug-In . SVG Version: 6.00 Build 0)  -->
<svg version="1.1" id="Layer_1" xmlns="http://www.w3.org/2000/svg" xmlns:xlink="http://www.w3.org/1999/xlink" x="0px" y="0px"
	 viewBox="0 0 1000 1000" style="enable-background:new 0 0 1000 1000;" xml:space="preserve">
<style type="text/css">
	.st0{fill:url(#SVGID_1_);}
	.st1{fill:#FFFFFF;}
	.st2{fill:#C7DFEB;}
	.st3{fill:#A8C9DE;}
</style>
<g>
	<linearGradient id="SVGID_1_" gradientUnits="userSpaceOnUse" x1="500" y1="141.1974" x2="500" y2="856.184">
		<stop  offset="0" style="stop-color:#2EBFE8"/>
		<stop  offset="1" style="stop-color:#13A9DC"/>
	</linearGradient>
	<circle class="st0" cx="500" cy="500" r="358.8"/>
	<g>
		<path class="st1" d="M674.6,347.6l-64.1,323.1c0,0-9,22.4-33.6,11.7L429,569l-53.8-26l-90.5-30.5c0,0-13.9-4.9-15.2-15.7
			c-1.3-10.8,15.7-16.6,15.7-16.6L645,339.1C645,339.1,674.6,326.1,674.6,347.6z"/>
		<path class="st2" d="M417.6,667.1c0,0-4.3-0.4-9.7-17.4c-5.4-17-32.7-106.7-32.7-106.7l217.3-138c0,0,12.5-7.6,12.1,0
			c0,0,2.2,1.3-4.5,7.6c-6.7,6.3-170.7,153.7-170.7,153.7"/>
		<path class="st3" d="M485.7,612.4l-58.5,53.3c0,0-4.6,3.5-9.6,1.3l11.2-99.1"/>
	</g>
</g>
</svg>
